<svg viewBox="0 0 32 32" fill="none" xmlns="http://www.w3.org/2000/svg">
  <path d="M16 4C16 4 12 10 12 16C12 22 16 26 16 26C16 26 20 22 20 16C20 10 16 4 16 4Z" fill="#16a34a" opacity="0.9"/>
  <path d="M8 10C8 10 6 16 8 20C10 24 14 26 14 26C14 26 12 20 12 16C12 12 8 10 8 10Z" fill="#16a34a" opacity="0.6"/>
  <path d="M24 10C24 10 26 16 24 20C22 24 18 26 18 26C18 26 20 20 20 16C20 12 24 10 24 10Z" fill="#16a34a" opacity="0.6"/>
  <path d="M4 14C4 14 4 18 6 21C8 24 12 26 12 26C12 26 8 22 8 18C8 14 4 14 4 14Z" fill="#16a34a" opacity="0.35"/>
  <path d="M28 14C28 14 28 18 26 21C24 24 20 26 20 26C20 26 24 22 24 18C24 14 28 14 28 14Z" fill="#16a34a" opacity="0.35"/>
</svg>
